<svg width="87" height="105" viewBox="0 0 87 105" fill="none" xmlns="http://www.w3.org/2000/svg">
<path fill-rule="evenodd" clip-rule="evenodd" d="M2.05209 103.24C1.23174 102.256 0.820312 101.094 0.820312 99.8C0.820312 98.4776 1.31635 97.1532 2.18826 95.8453L2.20853 95.8149L2.23096 95.7861C3.33563 94.3658 5.08101 93.3459 7.32204 92.6456L7.32391 92.645C11.2514 91.4261 15.6391 90.4823 20.4827 89.8095C25.0227 89.179 29.6211 88.7853 34.2776 88.6282C34.3168 88.3479 34.3753 88.0572 34.4502 87.7575L34.4787 87.6432L34.5331 87.5387C37.9801 80.9098 41.2987 73.4773 44.4877 65.239L44.4908 65.2312C47.8224 56.8356 51.0206 48.6401 54.0855 40.6448C56.6058 33.9605 58.9022 28.0385 60.9745 22.8793C60.9296 22.9145 60.8841 22.9502 60.8381 22.9863L60.8202 23.0005L60.8016 23.0138C58.94 24.3434 56.5456 26.0727 53.6175 28.2022C50.8284 30.3274 48.0391 32.519 45.2495 34.7773L45.2381 34.7865L45.2264 34.7955C42.4249 36.9299 39.9562 38.7981 37.8203 40.4L37.8117 40.4065C36.81 41.1411 36.021 41.7118 35.447 42.117C35.0213 42.4175 34.6665 42.6615 34.4291 42.8041C33.2791 43.9221 32.0061 44.6 30.6203 44.6C30.08 44.6 29.5096 44.4292 29.1021 43.9402C28.7237 43.4861 28.6203 42.9143 28.6203 42.4C28.6203 41.6917 28.8003 41.0273 29.1883 40.4453L29.2432 40.3629L29.3132 40.2929C29.6455 39.9606 30.0699 39.4228 30.5883 38.6453L30.6432 38.5629L30.7132 38.4929C31.557 37.6491 33.3998 36.0824 36.1911 33.8228C38.9885 31.5582 42.2529 28.8934 45.9845 25.8282C49.8524 22.6272 53.7868 19.4262 57.7878 16.2254L68.5771 7.23433C68.5774 7.23406 68.5778 7.23379 68.5781 7.23352C71.8991 4.44386 74.425 2.31681 76.1563 0.851945C76.3393 0.686332 76.5415 0.605554 76.6666 0.563845C76.8188 0.513094 76.9787 0.481534 77.1289 0.460076C77.4302 0.417027 77.8007 0.400024 78.2203 0.400024C80.5223 0.400024 82.4496 0.996066 83.8563 2.32244C85.2579 3.64394 86.0025 5.55849 86.2162 7.90949L86.2504 8.28585L86.0272 8.59077C80.5833 16.0263 75.068 24.4645 69.482 33.9075C64.0248 43.2247 58.7671 52.7418 53.7088 62.4589C49.0557 71.5138 44.8791 80.1501 41.1788 88.368C46.8894 88.2561 52.433 88.2001 57.8094 88.2C63.7821 88.067 69.1482 87.7352 73.9099 87.2061L73.9649 87.2H74.0203C74.5857 87.2 75.1577 87.3436 75.6211 87.7408C76.0611 88.1179 76.2917 88.6283 76.3927 89.1574C76.5288 89.5946 76.6591 90.3023 76.2012 90.8747C75.7427 91.4479 75.0451 91.463 74.5892 91.4059C68.1169 91.9381 60.8485 92.8645 52.7821 94.1869C44.6686 95.5169 36.6218 97.0464 28.6417 98.7753C20.8003 100.636 13.8996 102.561 7.93654 104.549C7.12178 104.82 6.39192 105 5.82031 105C4.3203 105 3.04571 104.4 2.06106 103.251L2.05209 103.24ZM28.4203 97.8C36.4203 96.0667 44.487 94.5334 52.6203 93.2C60.7537 91.8667 68.087 90.9334 74.6203 90.4C75.4203 90.5334 75.687 90.2 75.4203 89.4C75.287 88.6 74.8203 88.2 74.0203 88.2C69.2203 88.7334 63.8203 89.0667 57.8203 89.2C52.2993 89.2 46.6011 89.2591 40.7258 89.3772C40.358 89.3846 39.9895 89.3922 39.6203 89.4C39.7702 89.0642 39.9208 88.7276 40.0723 88.3903C43.8288 80.0247 48.0782 71.228 52.8203 62C57.887 52.2667 63.1536 42.7334 68.6203 33.4C74.2203 23.9334 79.7536 15.4667 85.2203 8.00003C84.8203 3.60003 82.487 1.40002 78.2203 1.40002C77.4203 1.40002 76.9537 1.46669 76.8203 1.60003C75.087 3.06669 72.5536 5.20003 69.2203 8.00003L58.4203 17C54.4203 20.2 50.487 23.4 46.6203 26.6C42.887 29.6667 39.6203 32.3334 36.8203 34.6C34.0203 36.8667 32.2203 38.4 31.4203 39.2C30.887 40 30.4203 40.6 30.0203 41C29.7536 41.4 29.6203 41.8667 29.6203 42.4C29.6203 43.2 29.9536 43.6 30.6203 43.6C31.687 43.6 32.7536 43.0667 33.8203 42C34.087 41.8667 35.2203 41.0667 37.2203 39.6C39.3536 38 41.8203 36.1334 44.6203 34C47.4203 31.7334 50.2203 29.5334 53.0203 27.4C55.9536 25.2667 58.3536 23.5334 60.2203 22.2C60.804 21.7414 61.303 21.3545 61.7172 21.0393C62.6276 20.3464 63.1287 20 63.2203 20C62.9966 20.5469 62.77 21.1036 62.5405 21.6701C60.3079 27.1815 57.8011 33.6248 55.0203 41C51.9536 49 48.7536 57.2 45.4203 65.6C42.2203 73.8667 38.887 81.3334 35.4203 88C35.287 88.5334 35.2203 89 35.2203 89.4V89.6C30.287 89.7333 25.4203 90.1334 20.6203 90.8C15.8203 91.4667 11.487 92.4 7.62031 93.6C5.48698 94.2667 3.95365 95.2 3.02031 96.4C2.22031 97.6 1.82031 98.7334 1.82031 99.8C1.82031 100.867 2.15365 101.8 2.82031 102.6C3.62031 103.533 4.62031 104 5.82031 104C6.22031 104 6.82031 103.867 7.62031 103.6C13.6203 101.6 20.5536 99.6667 28.4203 97.8Z" fill="#FFF9F9" fill-opacity="0.6"/>
</svg>
