<svg width="122" height="115" viewBox="0 0 122 115" fill="none" xmlns="http://www.w3.org/2000/svg">
<path fill-rule="evenodd" clip-rule="evenodd" d="M106.788 91.9498L106.778 91.9465C101.048 89.9929 93.898 89 85.3008 89C78.4119 89 70.9845 89.4637 63.0172 90.3932C55.1689 91.3244 47.4544 92.455 39.8736 93.785C32.4188 95.1162 25.7005 96.4467 19.7177 97.7762C13.7203 99.1089 9.13045 100.173 5.94332 100.97L5.82389 101H5.10078C3.75156 101 2.56858 100.482 1.59367 99.5071L1.5616 99.475L1.53256 99.4402C0.7346 98.4826 0.300781 97.3946 0.300781 96.2C0.300781 95.063 0.629387 94.0043 1.26873 93.0453L1.29836 93.0009L1.33256 92.9598C2.15522 91.9726 3.403 91.226 4.95904 90.6602L5.04223 90.63L14.261 89.0267C17.463 87.9931 21.0233 86.1831 24.9461 83.568C28.9662 80.8879 32.9223 78.4738 36.8144 76.3262C43.1802 72.7453 49.4147 68.7658 55.5179 64.3875C61.6295 60.003 68.1446 54.9508 75.0635 49.2294L75.0722 49.2222L75.081 49.2152C85.5245 40.9669 93.3164 33.7972 98.4883 27.703C103.697 21.5649 106.101 16.6866 106.101 13C106.101 10.6033 105.267 8.9347 103.676 7.81856C102.021 6.65706 99.4144 6 95.7008 6C88.8584 6 82.2862 6.92091 75.9808 8.76L75.9674 8.76391C69.761 10.4806 64.0936 12.6561 58.9618 15.2874C53.9237 17.9392 49.7682 20.4477 46.4851 22.8115C43.804 24.7419 41.9121 26.2458 40.7612 27.3368C42.0861 28.511 43.3171 29.7794 44.4539 31.1417C45.9636 32.7913 47.2083 34.519 48.1813 36.3259L48.1857 36.3342C49.5511 38.9285 50.3008 41.2314 50.3008 43.2C50.3008 44.8966 49.7497 46.3323 48.5516 47.3593L48.518 47.388L48.482 47.4137C47.3372 48.2315 45.9177 48.6 44.3008 48.6C42.0837 48.6 39.654 47.8633 37.035 46.4849L37.025 46.4797L37.0151 46.4742C34.4688 45.0595 32.3525 43.0804 30.6687 40.5547L30.6578 40.5383L30.6475 40.5215C29.0447 37.8986 28.5425 34.9802 29.1169 31.8211L29.1227 31.7891L29.1306 31.7575C29.4019 30.6724 29.7396 29.4571 30.143 28.1127L30.1558 28.07L30.1723 28.0286C30.5925 26.9781 31.1354 26.0571 31.8082 25.2797C31.3816 24.9319 30.9324 24.5614 30.4606 24.1682L30.3908 24.11L30.3326 24.0402C29.7143 23.2983 28.8966 22.4769 27.8688 21.5758C27.2621 21.1131 26.7008 20.4615 26.7008 19.6C26.7008 19.0597 26.8716 18.4893 27.3606 18.0818C27.8147 17.7034 28.3865 17.6 28.9008 17.6C29.8684 17.6 30.7139 17.9989 31.4079 18.6929L31.435 18.7201L31.46 18.7492C32.7613 20.2673 33.9933 21.4399 35.1536 22.2883C36.2718 21.1339 38.1126 19.4472 40.6434 17.2465C43.9238 14.3763 48.3979 11.4679 54.0368 8.51417L54.0453 8.50971C59.8846 5.52221 66.8486 3.29623 74.9205 1.81639L74.927 1.8152C77.2179 1.41093 80.0375 1.00843 83.3816 0.607128C86.7558 0.202229 90.1956 0 93.7008 0C97.7706 0 101.585 0.4739 105.139 1.42865C108.898 2.26772 111.951 3.95618 114.239 6.52489C116.643 9.08699 117.446 12.7615 116.894 17.3203L116.887 17.3704L116.876 17.4195C115.63 22.9611 112.593 28.3112 107.841 33.4721C103.255 38.5973 97.6032 43.6403 90.8956 48.6038C84.2042 53.5555 77.0468 58.3716 69.424 63.0522L69.4198 63.0548C61.9524 67.5885 54.6851 71.989 47.6177 76.2561L47.6057 76.2633C42.1462 79.4566 37.2112 82.5667 32.7992 85.5936C40.5231 84.211 48.2472 83.0159 55.9714 82.0084L55.9733 82.0082C65.3466 80.803 74.5226 80.2 83.5008 80.2C91.4184 80.2 99.0725 80.8039 106.462 82.0131L106.472 82.0147C109.732 82.5818 113.009 84.1315 116.301 86.6C119.78 89.2096 121.501 92.9216 121.501 97.6C121.501 99.7468 121.002 102 120.038 104.349C119.194 106.867 117.672 109.613 115.515 112.581C114.532 113.982 113.34 115 111.901 115C111.613 115 111.214 114.927 110.894 114.607C110.573 114.287 110.501 113.887 110.501 113.6C110.501 112.764 110.9 111.968 111.467 111.242C113.816 107.051 114.901 103.792 114.901 101.4C114.901 99.074 114.233 97.1776 112.937 95.646C111.628 94.0987 109.613 92.8489 106.798 91.9529L106.788 91.9498ZM112.301 111.8C111.767 112.467 111.501 113.067 111.501 113.6C111.501 113.867 111.634 114 111.901 114C112.834 114 113.767 113.333 114.701 112C116.834 109.067 118.301 106.4 119.101 104C120.034 101.733 120.501 99.6 120.501 97.6C120.501 93.2 118.901 89.8 115.701 87.4C112.501 85 109.367 83.5333 106.301 83C98.9675 81.8 91.3675 81.2 83.5008 81.2C74.5675 81.2 65.4341 81.8 56.1008 83C47.6751 84.099 39.2494 85.4217 30.8237 86.968C30.0494 87.1101 29.2751 87.2541 28.5008 87.4C29.1308 86.9433 29.7729 86.4846 30.4271 86.0242C35.311 82.5865 40.8689 79.0451 47.1008 75.4C54.1674 71.1333 61.4341 66.7333 68.9008 62.2C76.5008 57.5333 83.6341 52.7333 90.3008 47.8C96.9675 42.8667 102.567 37.8667 107.101 32.8C111.767 27.7333 114.701 22.5333 115.901 17.2C116.434 12.8 115.634 9.46667 113.501 7.2C111.367 4.8 108.501 3.2 104.901 2.4C101.434 1.46667 97.7008 1 93.7008 1C90.2341 1 86.8341 1.2 83.5008 1.6C80.1674 2 77.3675 2.4 75.1008 2.8C67.1008 4.26667 60.2341 6.46667 54.5008 9.4C48.9008 12.3333 44.5008 15.2 41.3008 18C38.2341 20.6667 36.2341 22.5333 35.3008 23.6C33.8341 22.6667 32.3008 21.2667 30.7008 19.4C30.1674 18.8667 29.5674 18.6 28.9008 18.6C28.1008 18.6 27.7008 18.9333 27.7008 19.6C27.7008 20 27.9674 20.4 28.5008 20.8C29.5674 21.7333 30.4341 22.6 31.1008 23.4C31.5965 23.8131 32.0667 24.2006 32.5112 24.5626C32.784 24.7847 33.0472 24.9972 33.3008 25.2C33.0479 25.4167 32.8098 25.653 32.5863 25.9089C31.9848 26.5975 31.4896 27.4279 31.1008 28.4C30.7008 29.7333 30.3674 30.9333 30.1008 32C29.5674 34.9333 30.0341 37.6 31.5008 40C33.1008 42.4 35.1008 44.2667 37.5008 45.6C40.0341 46.9333 42.3008 47.6 44.3008 47.6C45.7674 47.6 46.9674 47.2667 47.9008 46.6C48.8341 45.8 49.3008 44.6667 49.3008 43.2C49.3008 41.4667 48.6341 39.3333 47.3008 36.8C46.3674 35.0667 45.1674 33.4 43.7008 31.8C42.5811 30.4564 41.3675 29.2069 40.0598 28.0513C39.8102 27.8308 39.5572 27.6137 39.3008 27.4C39.4959 27.1805 39.729 26.9408 40 26.6811C41.2104 25.5213 43.1773 23.9609 45.9008 22C49.2341 19.6 53.4341 17.0667 58.5008 14.4C63.7008 11.7333 69.4341 9.53334 75.7008 7.8C82.1008 5.93334 88.7674 5 95.7008 5C103.301 5 107.101 7.66667 107.101 13C107.101 21.1333 96.6341 33.4667 75.7008 50C68.7674 55.7333 62.2341 60.8 56.1008 65.2C49.9675 69.6 43.7008 73.6 37.3008 77.2C33.4341 79.3333 29.5008 81.7333 25.5008 84.4C21.5008 87.0667 17.8341 88.9333 14.5008 90L5.30078 91.6C3.83411 92.1333 2.76745 92.8 2.10078 93.6C1.56745 94.4 1.30078 95.2667 1.30078 96.2C1.30078 97.1333 1.63412 98 2.30078 98.8C3.10078 99.6 4.03411 100 5.10078 100H5.70078C8.90078 99.2 13.5008 98.1333 19.5008 96.8C25.5008 95.4667 32.2341 94.1333 39.7008 92.8C47.3008 91.4667 55.0341 90.3333 62.9008 89.4C70.9008 88.4667 78.3675 88 85.3008 88C93.9674 88 101.234 89 107.101 91C112.967 92.8667 115.901 96.3333 115.901 101.4C115.901 104.067 114.701 107.533 112.301 111.8ZM43.5691 41.9948C43.6088 41.9347 43.7008 41.7189 43.7008 41.2C43.7008 40.317 43.484 39.274 43.0063 38.0571C42.1046 36.6449 41.2061 35.3643 40.3114 34.2139C39.7649 33.5113 39.0586 32.7697 38.1849 31.99C38.2144 32.5845 38.2519 33.2915 38.2975 34.1128C38.5389 36.0979 39.6017 38.3583 41.6257 40.9051C42.096 41.3108 42.4949 41.5919 42.8249 41.7695C43.1768 41.959 43.3932 42 43.5008 42C43.5347 42 43.5565 41.9972 43.5691 41.9948ZM40.9008 41.6C38.7674 38.9333 37.5674 36.4667 37.3008 34.2C37.2281 32.8909 37.1752 31.8596 37.1421 31.1058C37.1146 30.4777 37.1008 30.0424 37.1008 29.8C37.4584 30.0751 37.7991 30.3474 38.1226 30.6168C39.3673 31.6532 40.36 32.6476 41.1008 33.6C42.0341 34.8 42.9675 36.1333 43.9008 37.6C44.4341 38.9333 44.7008 40.1333 44.7008 41.2C44.7008 42.4 44.3008 43 43.5008 43C42.8341 43 41.9674 42.5333 40.9008 41.6Z" fill="#FFF9F9" fill-opacity="0.6"/>
</svg>
