<svg width="113" height="108" viewBox="0 0 113 108" fill="none" xmlns="http://www.w3.org/2000/svg">
<path fill-rule="evenodd" clip-rule="evenodd" d="M4.25235 100.716L4.24329 100.707C1.48139 97.9452 0.150391 94.201 0.150391 89.6C0.150391 85.6394 1.42668 81.7828 3.91834 78.0453C6.38196 74.3499 9.58742 70.9438 13.5207 67.8231C17.4344 64.585 21.6182 61.7512 26.0715 59.3221C30.4953 56.9092 34.7361 55.0866 38.793 53.8633C39.2517 53.6596 39.8022 53.6 40.3504 53.6C40.7132 53.6 41.1677 53.663 41.5504 53.95C41.9872 54.2776 42.1504 54.756 42.1504 55.2C42.1504 55.855 41.8511 56.4163 41.4437 56.869C41.0414 57.3159 40.487 57.7125 39.836 58.0742L39.7711 58.1103L39.7015 58.1363C35.5427 59.6959 31.1579 62.1773 26.5467 65.6028L26.5428 65.6057C22.0957 68.8756 18.3058 72.7311 15.169 77.1743C12.2098 81.4212 10.7504 85.89 10.7504 90.6C10.7504 95.2752 12.3681 98.2738 15.4245 99.9195L15.4374 99.9265L15.4501 99.9338C18.7332 101.828 22.752 102.8 27.5504 102.8C31.3371 102.8 35.4003 102.343 39.7429 101.422L39.7487 101.421C44.2516 100.493 48.3483 99.4359 52.0411 98.249C60.5075 95.4708 67.6873 92.1069 73.5957 88.168C79.5366 84.2074 84.3277 80.0668 87.9879 75.753L87.9896 75.7511C91.8137 71.2676 94.5505 67.0848 96.2328 63.2024L96.2359 63.1954L96.239 63.1884C98.0792 59.1137 98.9504 55.7969 98.9504 53.2C98.9504 48.5184 97.3819 44.8718 94.2898 42.1507C91.2659 39.4897 86.2111 38.3379 78.8393 38.996L78.7949 39H78.436C74.6198 39.6579 71.9146 40.1197 70.3222 40.3852C68.8809 40.6471 67.6228 40.8467 66.5505 40.9827C65.6032 41.2499 64.6541 41.452 63.7031 41.5883C62.8465 41.73 62.026 41.7404 61.252 41.5993C60.4055 41.5866 59.529 41.4044 58.9571 40.769C58.339 40.0822 58.3491 39.1921 58.5647 38.4096C58.7409 36.7978 59.4634 35.5169 60.8196 34.7732C62.129 34.0551 63.8682 33.9309 65.887 34.2094L66.0502 34.2319L66.1976 34.3056C66.2863 34.3499 66.455 34.4 66.7504 34.4C67.3765 34.4 67.9864 34.5398 68.5737 34.8H69.7504C70.2677 34.8 70.7916 34.8977 71.241 35.1677C73.9518 34.8966 76.3412 34.3899 78.4176 33.657C80.5611 32.9005 83.4761 31.2919 87.1889 28.7725L87.195 28.7684L87.2012 28.7643C91.8324 25.7209 94.9867 23.0631 96.753 20.7964C98.5661 18.3332 99.3504 16.3486 99.3504 14.8C99.3504 13.2734 98.7195 12.0268 97.3504 11L97.3126 10.9717L97.2777 10.94C96.015 9.79201 94.3161 9.12187 92.0949 8.99847L92.0605 8.99656L92.0264 8.99229C91.0052 8.86465 89.9136 8.80001 88.7504 8.80001H88.6881L88.6264 8.79229C87.6005 8.66406 86.5753 8.60001 85.5504 8.60001C79.3855 8.60001 73.6997 9.51775 68.4844 11.3426C63.4177 13.162 59.5877 15.7358 56.9283 19.0283L56.895 19.0696L56.8575 19.1071C56.4944 19.4702 56.1345 19.7767 55.7804 19.998C55.438 20.212 55.0163 20.4 54.5504 20.4C53.9924 20.4 53.4598 20.1669 53.1183 19.6547C52.8246 19.2141 52.7504 18.6795 52.7504 18.2C52.7504 17.6091 52.9395 16.9346 53.2219 16.2286C53.552 15.4035 54.1094 14.6268 54.8433 13.8929C60.4164 8.31974 66.5669 4.61819 73.294 2.83345L73.2988 2.83217C80.0274 1.08275 86.1802 0.200012 91.7504 0.200012C93.5088 0.200012 95.1395 0.267621 96.6409 0.404116C98.1129 0.537926 99.453 0.671916 100.661 0.806127L100.676 0.807852L100.692 0.810061C103.689 1.23819 106.392 2.52215 108.789 4.62983C111.392 6.66444 112.75 9.27199 112.75 12.4C112.75 16.5337 111.245 20.2958 108.303 23.6585L108.296 23.6665L108.289 23.6743C105.4 26.838 101.771 29.5714 97.4196 31.8831C94.7416 33.3058 92.0364 34.5733 89.304 35.6852C90.7736 35.7924 92.2429 35.9684 93.7118 36.2131C97.135 36.7612 100.178 37.7917 102.825 39.3194C105.714 40.7723 107.74 43.1018 108.886 46.2478C109.868 48.7756 110.35 51.5639 110.35 54.6C110.35 60.2831 108.614 65.7383 105.186 70.9496C101.793 76.1074 97.4571 80.8462 92.1899 85.1688C87.0793 89.4721 81.7626 93.1739 76.2396 96.2722C70.7357 99.3597 65.7433 101.656 61.2666 103.149L61.2497 103.154L61.2326 103.159C56.6561 104.505 51.6174 105.647 46.1187 106.586C40.5986 107.528 35.1423 108 29.7504 108C24.6136 108 19.8004 107.459 15.3148 106.372C10.7837 105.273 7.08138 103.404 4.26164 100.725L4.25235 100.716ZM107.95 46.6C106.884 43.6667 105.017 41.5333 102.35 40.2C99.8171 38.7333 96.8837 37.7333 93.5504 37.2C91.3751 36.8375 89.1998 36.6289 87.0244 36.5745C85.9998 36.5488 84.9751 36.5573 83.9504 36.6C84.9216 36.2763 85.8896 35.933 86.8544 35.5703C90.2602 34.2898 93.6255 32.7663 96.9504 31C101.217 28.7333 104.75 26.0667 107.55 23C110.35 19.8 111.75 16.2667 111.75 12.4C111.75 9.60001 110.55 7.26668 108.15 5.40001C105.884 3.40001 103.35 2.20001 100.55 1.80001C99.3504 1.66668 98.0171 1.53334 96.5504 1.40001C95.0837 1.26668 93.4837 1.20001 91.7504 1.20001C86.2837 1.20001 80.2171 2.06668 73.5504 3.80001C67.0171 5.53334 61.0171 9.13335 55.5504 14.6C54.8837 15.2667 54.4171 15.9333 54.1504 16.6C53.8837 17.2667 53.7504 17.8 53.7504 18.2C53.7504 19 54.0171 19.4 54.5504 19.4C54.9504 19.4 55.4837 19.0667 56.1504 18.4C58.9504 14.9333 62.9504 12.2667 68.1504 10.4C73.4837 8.53334 79.2837 7.60001 85.5504 7.60001C86.6171 7.60001 87.6837 7.66668 88.7504 7.80001C89.9504 7.80001 91.0837 7.86668 92.1504 8.00001C94.5504 8.13334 96.4837 8.86668 97.9504 10.2C99.5504 11.4 100.35 12.9333 100.35 14.8C100.35 16.6667 99.4171 18.8667 97.5504 21.4C95.6837 23.8 92.4171 26.5333 87.7504 29.6C84.0171 32.1333 81.0171 33.8 78.7504 34.6C76.4837 35.4 73.8837 35.9333 70.9504 36.2C70.6837 35.9333 70.2837 35.8 69.7504 35.8H68.3504C67.8171 35.5333 67.2837 35.4 66.7504 35.4C66.3504 35.4 66.0171 35.3333 65.7504 35.2C61.8837 34.6667 59.8171 35.8 59.5504 38.6C59.1504 39.9333 59.7504 40.6 61.3504 40.6C62.0171 40.7333 62.7504 40.7333 63.5504 40.6C64.4837 40.4667 65.4171 40.2667 66.3504 40C67.4171 39.8667 68.6837 39.6667 70.1504 39.4C71.7504 39.1333 74.4837 38.6667 78.3504 38H78.7504C86.2171 37.3333 91.6171 38.4667 94.9504 41.4C98.2837 44.3333 99.9504 48.2667 99.9504 53.2C99.9504 56 99.0171 59.4667 97.1504 63.6C95.4171 67.6 92.6171 71.8667 88.7504 76.4C85.0171 80.8 80.1504 85 74.1504 89C68.1504 93 60.8837 96.4 52.3504 99.2C48.6171 100.4 44.4837 101.467 39.9504 102.4C35.5504 103.333 31.4171 103.8 27.5504 103.8C22.6171 103.8 18.4171 102.8 14.9504 100.8C11.4837 98.9333 9.75039 95.5333 9.75039 90.6C9.75039 85.6667 11.2837 81 14.3504 76.6C17.5504 72.0667 21.4171 68.1333 25.9504 64.8C30.6171 61.3333 35.0837 58.8 39.3504 57.2C40.5504 56.5333 41.1504 55.8667 41.1504 55.2C41.1504 54.8 40.8837 54.6 40.3504 54.6C39.8171 54.6 39.4171 54.6667 39.1504 54.8C35.1504 56 30.9504 57.8 26.5504 60.2C22.1504 62.6 18.0171 65.4 14.1504 68.6C10.2837 71.6667 7.15039 75 4.75039 78.6C2.35039 82.2 1.15039 85.8667 1.15039 89.6C1.15039 94 2.41706 97.4667 4.95039 100C7.61706 102.533 11.1504 104.333 15.5504 105.4C19.9504 106.467 24.6837 107 29.7504 107C35.0837 107 40.4837 106.533 45.9504 105.6C51.4171 104.667 56.4171 103.533 60.9504 102.2C65.3504 100.733 70.2837 98.4667 75.7504 95.4C81.2171 92.3333 86.4837 88.6667 91.5504 84.4C96.7504 80.1333 101.017 75.4667 104.35 70.4C107.684 65.3333 109.35 60.0667 109.35 54.6C109.35 51.6667 108.884 49 107.95 46.6Z" fill="#FFF9F9" fill-opacity="0.6"/>
</svg>
