<svg width="132" height="114" viewBox="0 0 132 114" fill="none" xmlns="http://www.w3.org/2000/svg">
<path fill-rule="evenodd" clip-rule="evenodd" d="M45.4815 105.403L45.5006 105.364C47.6281 100.976 49.7561 96.3874 51.8845 91.5985C53.8446 87.0657 55.8048 82.4764 57.765 77.8308C51.5569 77.047 45.6946 76.0287 40.1788 74.7751L40.1656 74.7721L40.1526 74.7688C34.6622 73.3643 29.6744 72.3312 25.187 71.6668C23.3378 73.6801 21.3285 75.12 19.1515 75.9363C16.9214 76.7726 14.7358 77.2 12.6004 77.2C9.40238 77.2 6.569 76.5737 4.1325 75.2838L4.10081 75.267L4.07039 75.248C1.89474 73.8882 0.400391 72.295 0.400391 70.4C0.400391 69.0893 1.2871 68.0916 2.47039 67.352L2.49782 67.3349L2.52629 67.3195C4.34802 66.3386 6.24869 65.7015 8.22456 65.415C10.1578 65.0035 12.2174 64.8 14.4004 64.8C16.027 64.8 17.6535 64.8677 19.2799 65.0032C20.8912 65.1272 22.5023 65.308 24.1131 65.5454C26.8612 63.3122 30.4705 60.28 34.9433 56.4461C39.6054 52.3169 44.6674 47.7876 50.1295 42.8585C55.7262 37.7947 61.3231 32.6643 66.9199 27.4672L66.9285 27.4592C72.6554 22.2651 77.9819 17.3382 82.9081 12.6784C87.8372 7.88241 91.9654 3.82077 95.2933 0.492897C95.4868 0.299358 95.7116 0.208831 95.8467 0.163819C95.9989 0.113069 96.1588 0.0815087 96.309 0.0600516C96.6103 0.0170026 96.9808 0 97.4004 0C98.1227 0 98.9299 0.220646 99.785 0.576924C100.644 0.93501 101.618 1.45836 102.7 2.13319C105.024 3.37024 106.6 4.95449 106.6 7C106.6 7.93259 106.226 8.7282 105.515 9.31032C99.0428 17.6434 92.6276 27.4355 86.2711 38.6917L86.2687 38.6961C80.1625 49.382 74.4212 60.1891 69.0447 71.1175C74.5843 70.8106 80.1802 70.1763 85.8326 69.2142C92.0378 68.158 97.8384 66.5751 103.237 64.4684L103.244 64.4655C108.761 62.364 113.394 59.7484 117.162 56.6305C121.028 53.4083 123.713 49.6292 125.249 45.2895C125.64 43.985 125.965 42.7496 126.224 41.5831L126.235 41.5327L126.252 41.4838C126.624 40.3673 126.8 39.3413 126.8 38.4C126.8 37.3279 126.592 36.489 126.228 35.8386C125.868 35.1963 125.325 34.6802 124.553 34.2944L124.458 34.2471L124.376 34.1809C124.002 33.8818 123.676 33.5664 123.437 33.2312C123.199 32.899 123 32.4811 123 32C123 31.3722 123.231 30.6667 123.953 30.3056C124.552 30.0064 125.251 30.0818 125.843 30.2299L125.891 30.2418L125.937 30.2583C128.063 31.0178 129.6 32.4782 130.508 34.5789C131.508 36.5892 132 38.8021 132 41.2C132 42.8842 131.79 44.5063 131.365 46.0631L131.362 46.0753L131.358 46.0873C129.314 52.9004 125.965 58.587 121.297 63.1176C116.661 67.6169 111.145 71.0873 104.761 73.5326C98.542 75.9659 91.8577 77.5848 84.7129 78.3937L84.6923 78.396L79.0361 78.8H69.2004C68.0455 78.8 66.845 78.7512 65.5991 78.6541C63.0453 83.8996 60.615 89.0213 58.3083 94.0191L58.3042 94.0281C55.9133 99.0755 53.7221 103.922 51.7303 108.569C51.1511 110.149 50.2684 111.43 49.0579 112.356C48.1107 113.293 47.0764 114 46.0004 114C45.3564 114 44.728 113.77 44.3004 113.2C43.9133 112.684 43.8004 112.029 43.8004 111.4C43.8004 110.786 43.968 109.973 44.2389 109.025C44.5164 108.054 44.9272 106.858 45.4659 105.444L45.4815 105.403ZM48.4004 111.6C49.4671 110.8 50.2671 109.667 50.8004 108.2C52.8004 103.533 55.0004 98.6667 57.4004 93.6C59.8004 88.4 62.3337 83.0667 65.0004 77.6C66.4671 77.7333 67.8671 77.8 69.2004 77.8H79.0004L84.6004 77.4C91.6671 76.6 98.2671 75 104.4 72.6C110.667 70.2 116.067 66.8 120.6 62.4C125.134 58 128.4 52.4667 130.4 45.8C130.8 44.3333 131 42.8 131 41.2C131 38.9333 130.534 36.8667 129.6 35C128.8 33.1333 127.467 31.8667 125.6 31.2C124.534 30.9333 124 31.2 124 32C124 32.4 124.334 32.8667 125 33.4C126.867 34.3333 127.8 36 127.8 38.4C127.8 39.4667 127.6 40.6 127.2 41.8C126.934 43 126.6 44.2667 126.2 45.6C124.6 50.1333 121.8 54.0667 117.8 57.4C113.934 60.6 109.2 63.2667 103.6 65.4C98.1337 67.5333 92.2671 69.1333 86.0004 70.2C80.1216 71.2007 74.3015 71.8493 68.54 72.1459C68.1599 72.1655 67.78 72.1835 67.4004 72.2C67.5671 71.8586 67.7342 71.5174 67.9016 71.1762C73.358 60.0586 79.1909 49.0666 85.4004 38.2C91.8004 26.8667 98.2671 17 104.8 8.6C105.334 8.2 105.6 7.66667 105.6 7C105.6 5.53334 104.467 4.2 102.2 3C100.067 1.66667 98.4671 1 97.4004 1C96.6004 1 96.1337 1.06667 96.0004 1.2C92.6671 4.53334 88.5337 8.6 83.6004 13.4C78.6671 18.0667 73.3337 23 67.6004 28.2C62.0004 33.4 56.4004 38.5333 50.8004 43.6C45.3337 48.5333 40.2671 53.0667 35.6004 57.2C30.9337 61.2 27.2004 64.3333 24.4004 66.6C22.6671 66.3333 20.9337 66.1333 19.2004 66C17.6004 65.8667 16.0004 65.8 14.4004 65.8C12.2671 65.8 10.2671 66 8.40039 66.4C6.53372 66.6667 4.73372 67.2667 3.00039 68.2C1.93372 68.8667 1.40039 69.6 1.40039 70.4C1.40039 71.7333 2.46706 73.0667 4.60039 74.4C6.86706 75.6 9.53373 76.2 12.6004 76.2C14.6004 76.2 16.6671 75.8 18.8004 75C20.9337 74.2 22.9337 72.7333 24.8004 70.6C29.4671 71.2667 34.6671 72.3333 40.4004 73.8C45.9634 75.0643 51.8862 76.0889 58.1685 76.8736C58.5114 76.9165 58.8554 76.9586 59.2004 77C59.0658 77.3198 58.9311 77.6393 58.7965 77.9585C56.7978 82.6975 54.7991 87.378 52.8004 92C50.6671 96.8 48.5337 101.4 46.4004 105.8C45.3337 108.6 44.8004 110.467 44.8004 111.4C44.8004 112.467 45.2004 113 46.0004 113C46.6671 113 47.4671 112.533 48.4004 111.6ZM71.479 46.2113C74.3289 39.456 76.9279 33.2445 79.2759 27.5767C77.3929 29.2985 75.2494 31.1607 72.8471 33.1628C68.9707 36.5043 64.7623 39.9778 60.2223 43.5831L60.2193 43.5855C55.8182 47.053 51.4838 50.4538 47.216 53.788C42.9506 57.1204 39.219 60.0524 36.0211 62.584C33.8413 64.3097 32.066 65.7242 30.6942 66.8282C32.8932 67.2861 35.017 67.8217 37.0654 68.4355C39.7012 69.0939 42.2009 69.6196 44.5648 70.0136L44.5857 70.0171L44.6064 70.0215C49.4178 71.0344 54.7967 71.5622 60.7482 71.5981C64.5145 63.0122 68.0897 54.554 71.4739 46.2236L71.479 46.2113ZM36.8004 69.4C34.5255 68.7175 32.1536 68.1321 29.6846 67.6437C29.2594 67.5596 28.8314 67.4784 28.4004 67.4C28.7027 67.1526 29.0419 66.8769 29.4179 66.5729C30.8659 65.4021 32.8601 63.8111 35.4004 61.8C38.6004 59.2667 42.3337 56.3333 46.6004 53C50.8671 49.6667 55.2004 46.2667 59.6004 42.8C64.1337 39.2 68.3337 35.7333 72.2004 32.4C75.3076 29.8107 77.9723 27.4627 80.1944 25.3561C80.833 24.7508 81.4349 24.1655 82.0004 23.6C81.6845 24.3672 81.3635 25.1454 81.0374 25.9346C78.4733 32.1409 75.5942 39.0294 72.4004 46.6C68.9337 55.1333 65.2671 63.8 61.4004 72.6C55.1337 72.6 49.4671 72.0667 44.4004 71C42.0004 70.6 39.4671 70.0667 36.8004 69.4Z" fill="#FFF9F9" fill-opacity="0.6"/>
</svg>
