<svg width="8" height="14" viewBox="0 0 8 14" fill="none" xmlns="http://www.w3.org/2000/svg">
<g clip-path="url(#clip0_1728_7)">
<path d="M0.716685 1.65392L6.19768 7.27668L0.716685 12.8994C0.61856 12.9999 0.563625 13.1348 0.563625 13.2752C0.563625 13.4156 0.61856 13.5505 0.716685 13.6509C0.764345 13.6996 0.821235 13.7382 0.884015 13.7646C0.946795 13.791 1.01422 13.8046 1.08231 13.8046C1.15041 13.8046 1.21783 13.791 1.28061 13.7646C1.34339 13.7382 1.40027 13.6996 1.44793 13.6509L7.27993 7.6693C7.38232 7.56426 7.43963 7.42337 7.43963 7.27668C7.43963 7.12998 7.38232 6.9891 7.27993 6.88405L1.44906 0.902422C1.40136 0.853422 1.34433 0.814522 1.28134 0.787922C1.21835 0.761322 1.15068 0.747622 1.0823 0.747622C1.01393 0.747622 0.946264 0.761322 0.883274 0.787922C0.820284 0.814522 0.763254 0.853422 0.715559 0.902422C0.617433 1.00292 0.562499 1.13772 0.562499 1.27822C0.562499 1.41862 0.617433 1.55342 0.715559 1.65392L0.716685 1.65392Z" fill="#333333"/>
</g>
<defs>
<clipPath id="clip0_1728_7">
<rect width="8" height="14" fill="white"/>
</clipPath>
</defs>
</svg>
