<svg width="14" height="8" viewBox="0 0 14 8" fill="none" xmlns="http://www.w3.org/2000/svg">
<path d="M12.6233 0.99177L7.00054 6.47277L1.37779 0.99177C1.27733 0.893645 1.14247 0.83871 1.00204 0.83871C0.861613 0.83871 0.726754 0.893645 0.626293 0.99177C0.577651 1.03943 0.539007 1.09632 0.512626 1.1591C0.486245 1.22188 0.472656 1.2893 0.472656 1.35739C0.472656 1.42549 0.486245 1.49291 0.512626 1.55569C0.539007 1.61847 0.577651 1.67536 0.626293 1.72302L6.60792 7.55502C6.71296 7.65741 6.85385 7.71472 7.00054 7.71472C7.14724 7.71472 7.28812 7.65741 7.39317 7.55502L13.3748 1.72415C13.4238 1.67645 13.4627 1.61942 13.4893 1.55643C13.5159 1.49344 13.5296 1.42577 13.5296 1.35739C13.5296 1.28902 13.5159 1.22135 13.4893 1.15836C13.4627 1.09537 13.4238 1.03834 13.3748 0.990645C13.2743 0.892519 13.1395 0.837585 12.999 0.837585C12.8586 0.837585 12.7238 0.892519 12.6233 0.990645V0.99177Z" fill="white"/>
</svg>
