<svg width="14" height="10" viewBox="0 0 14 10" fill="none" xmlns="http://www.w3.org/2000/svg">
<path fill-rule="evenodd" clip-rule="evenodd" d="M-0.000893593 5.00002C-0.000893593 4.86741 0.0517845 4.74024 0.145553 4.64647C0.239321 4.5527 0.366498 4.50002 0.499106 4.50002H12.2921L9.14511 1.35402C9.09862 1.30753 9.06174 1.25234 9.03658 1.1916C9.01142 1.13087 8.99847 1.06577 8.99847 1.00002C8.99847 0.934277 9.01142 0.869177 9.03658 0.808438C9.06174 0.747698 9.09862 0.692509 9.14511 0.646021C9.19159 0.599533 9.24678 0.562657 9.30752 0.537498C9.36826 0.512339 9.43336 0.49939 9.49911 0.49939C9.56485 0.49939 9.62995 0.512339 9.69069 0.537498C9.75143 0.562657 9.80662 0.599533 9.85311 0.646021L13.8531 4.64602C13.8997 4.69247 13.9366 4.74764 13.9618 4.80839C13.987 4.86913 14 4.93425 14 5.00002C14 5.06579 13.987 5.13091 13.9618 5.19165C13.9366 5.2524 13.8997 5.30758 13.8531 5.35402L9.85311 9.35402C9.80662 9.40051 9.75143 9.43739 9.69069 9.46254C9.62995 9.4877 9.56485 9.50065 9.49911 9.50065C9.43336 9.50065 9.36826 9.4877 9.30752 9.46254C9.24678 9.43739 9.19159 9.40051 9.14511 9.35402C9.09862 9.30753 9.06174 9.25234 9.03658 9.1916C9.01142 9.13087 8.99847 9.06576 8.99847 9.00002C8.99847 8.93428 9.01142 8.86918 9.03658 8.80844C9.06174 8.7477 9.09862 8.69251 9.14511 8.64602L12.2921 5.50002H0.499106C0.366498 5.50002 0.239321 5.44734 0.145553 5.35357C0.0517845 5.25981 -0.000893593 5.13263 -0.000893593 5.00002Z" fill="#C0C98A"/>
</svg>
