<svg width="12" height="7" viewBox="0 0 12 7" fill="none" xmlns="http://www.w3.org/2000/svg">
<path d="M10.9978 0.326018L5.99983 5.19802L1.00183 0.326018C0.912534 0.238795 0.792659 0.189965 0.667832 0.189965C0.543005 0.189965 0.42313 0.238795 0.333832 0.326018C0.290594 0.368382 0.256244 0.418948 0.232794 0.474754C0.209344 0.53056 0.197266 0.590485 0.197266 0.651018C0.197266 0.711551 0.209344 0.771475 0.232794 0.827281C0.256244 0.883087 0.290594 0.933653 0.333832 0.976017L5.65083 6.16002C5.74421 6.25103 5.86944 6.30197 5.99983 6.30197C6.13023 6.30197 6.25546 6.25103 6.34883 6.16002L11.6658 0.977018C11.7094 0.934622 11.744 0.883932 11.7676 0.82794C11.7912 0.771949 11.8034 0.711792 11.8034 0.651018C11.8034 0.590244 11.7912 0.530086 11.7676 0.474094C11.744 0.418103 11.7094 0.367414 11.6658 0.325017C11.5765 0.237795 11.4567 0.188965 11.3318 0.188965C11.207 0.188965 11.0871 0.237795 10.9978 0.325017V0.326018Z" fill="black"/>
</svg>
