<svg width="14" height="8" viewBox="0 0 14 8" fill="none" xmlns="http://www.w3.org/2000/svg">
<path d="M12.6233 0.99174L7.00054 6.47274L1.37779 0.99174C1.27733 0.893614 1.14247 0.83868 1.00204 0.83868C0.861613 0.83868 0.726754 0.893614 0.626293 0.99174C0.577651 1.0394 0.539007 1.09629 0.512626 1.15907C0.486245 1.22185 0.472656 1.28926 0.472656 1.35736C0.472656 1.42546 0.486245 1.49288 0.512626 1.55566C0.539007 1.61844 0.577651 1.67533 0.626293 1.72299L6.60792 7.55499C6.71296 7.65738 6.85385 7.71468 7.00054 7.71468C7.14724 7.71468 7.28812 7.65738 7.39317 7.55499L13.3748 1.72411C13.4238 1.67642 13.4627 1.61939 13.4893 1.5564C13.5159 1.49341 13.5296 1.42573 13.5296 1.35736C13.5296 1.28899 13.5159 1.22132 13.4893 1.15833C13.4627 1.09534 13.4238 1.03831 13.3748 0.990614C13.2743 0.892489 13.1395 0.837555 12.999 0.837555C12.8586 0.837555 12.7238 0.892489 12.6233 0.990614V0.99174Z" fill="black" fill-opacity="0.35"/>
</svg>
