<svg width="73" height="50" viewBox="0 0 73 50" fill="none" xmlns="http://www.w3.org/2000/svg">
<g clip-path="url(#clip0_1071_4132)">
<path d="M34.2421 33.7439L26.8361 50H21.7754L43.376 2.21677L43.6229 1.72415L43.8696 1.23154L44.2401 0.738933L44.6103 0.492627L45.104 0.369474L45.5979 0.246322L46.15 0.123169H46.7686L47.511 0.246322L48.0059 0.369474L48.5008 0.492627L48.872 0.61578L49.2432 0.862085L49.4906 1.10839L49.7381 1.47785L72.2567 50H53.9912L46.3383 33.7439H34.2421Z" fill="#C0C98A"/>
<path d="M64.8346 45.0739H56.9159L49.2447 28.8177H36.377L46.8939 6.40393L64.8346 45.0739Z" fill="#FFF9F9"/>
<path d="M40.5 24.3103L46.8675 10.3103L53.1528 24.3103H40.5Z" fill="#C0C98A"/>
<path d="M17.322 50H0L18.6831 10.217L18.8068 9.97139L19.178 9.60302L19.6729 9.23467L20.0441 8.98908L20.2915 8.86629L20.7864 8.74351L21.2814 8.62073H22.2712L22.7661 8.74351L23.261 8.86629L23.7559 8.98908L24.2508 9.23467L24.7458 9.48024L25.3644 9.97139L25.7356 10.4625L44.5424 50H28.4576L30.9322 44.5973H36.1288L22.3949 16.1108L8.1661 44.5973H13.8576L23.261 25.5653L26.3542 31.4592L17.322 50Z" fill="#E74349"/>
</g>
<defs>
<clipPath id="clip0_1071_4132">
<rect width="73" height="50" fill="white"/>
</clipPath>
</defs>
</svg>
