<svg width="111" height="27" viewBox="0 0 111 27" fill="none" xmlns="http://www.w3.org/2000/svg">
<g clip-path="url(#clip0_1071_4129)">
<path d="M21.8605 14.9639L14.2858 0.289562H8.72118L1.14648 14.9639H5.50511L6.81692 12.4477H16.1901L17.4807 14.9639H21.8605ZM14.6455 9.40287H8.4038L11.5564 3.37667L14.6455 9.40287ZM42.5619 14.9639V0.289562H38.6476V5.8083H29.0628V0.289562H25.1485V14.9639H29.0628V9.21257H38.6476V14.9639H42.5619ZM64.4096 14.9639V0.289562H60.4953L50.8683 10.1429H50.826L50.9318 0.289562H47.0175V14.9639H50.9318L60.5588 5.08938H60.6011L60.4953 14.9639H64.4096ZM85.9192 9.84691V9.40287H81.878V9.84691C81.878 11.5596 81.0951 11.6865 79.4871 11.6865H74.6841C72.8645 11.6865 72.5895 10.8407 72.5895 8.64167V6.35806C72.5895 4.26474 72.9915 3.58812 74.6207 3.58812H79.4871C80.7777 3.58812 81.7299 3.67269 81.8568 4.98366V5.55456H85.8981V4.98366C85.8981 0.585586 83.7399 0.183838 80.3334 0.183838H75.0438C71.32 0.183838 68.5482 0.88161 68.5482 5.72372V9.52974C68.5482 14.8793 71.6585 15.0908 75.1073 15.0908H79.9103C81.7722 15.0908 83.2321 15.1119 84.5651 14.0124C85.8981 12.9129 85.9192 11.4539 85.9192 9.84691ZM109.895 14.9639L102.32 0.289562H96.7556L89.1809 14.9639H93.5395L94.8513 12.4477H104.224L105.515 14.9639H109.895ZM102.68 9.40287H96.4382L99.5908 3.37667L102.68 9.40287Z" fill="#E74349"/>
<path d="M5.96536 22.2668V21.0307H0.0898438V26.6746H1.59534V22.2668H5.96536ZM12.8701 23.1045C12.8701 21.6243 12.3412 21.0307 10.9414 21.0307H6.7586V26.6746H8.2641V25.2271H10.9414C12.5202 25.2271 12.8701 24.6903 12.8701 23.1045ZM11.3239 23.1045C11.3239 23.8283 11.2344 23.9177 10.6403 23.9177H8.2641V22.34H10.6403C11.2344 22.34 11.3239 22.5189 11.3239 23.1045ZM20.4951 21.0307H18.7618L16.8006 24.2674H16.7843L14.7905 21.0307H13.0571L15.9217 25.528L15.8973 25.593C15.8566 25.6906 15.7833 25.715 15.6857 25.715H14.8556V26.6746H16.4995C16.9145 26.6746 17.1749 26.5364 17.297 26.2599L20.4951 21.0307ZM27.5782 26.6746V21.0307H20.8889V26.6746H22.3944V22.34H26.0727V26.6746H27.5782ZM35.1756 26.6746V21.0307H28.4863V26.6746H29.9918V22.34H33.6701V26.6746H35.1756ZM43.6357 26.6746L40.7224 21.0307H38.5821L35.6688 26.6746H37.3452L37.8497 25.7069H41.4548L41.9512 26.6746H43.6357ZM40.8607 24.5358H38.46L39.6726 22.218L40.8607 24.5358ZM55.36 26.6746V25.715H55.1159C54.9043 25.715 54.7578 25.7394 54.7578 25.3572V24.8204C54.7578 24.1861 54.3591 23.8283 53.7406 23.8039V23.7795C54.3591 23.7551 54.6927 23.4298 54.6927 22.7954V22.3481C54.6927 21.9659 54.8392 21.9903 55.0508 21.9903H55.2949V21.0307H54.0905C53.4965 21.0307 53.2198 21.3153 53.2198 21.8765V22.4457C53.2198 22.8686 53.0245 23.1533 52.5688 23.1533H49.8914V21.0307H48.3859V26.6746H49.8914V24.4626H52.6339C53.0896 24.4626 53.2523 24.7472 53.2523 25.1701V25.8289C53.2523 26.39 53.529 26.6746 54.1231 26.6746H55.36ZM62.5995 24.6496V23.0557C62.5995 21.3153 61.3951 20.99 60.15 20.99H58.2783C56.9843 20.99 55.8369 21.3153 55.8369 23.0557V24.6496C55.8369 26.39 56.9762 26.7234 58.2783 26.7234H60.15C61.452 26.7234 62.5995 26.39 62.5995 24.6496ZM61.0533 24.487C61.0533 25.3246 60.6952 25.4141 60.15 25.4141H58.2783C57.733 25.4141 57.3831 25.3246 57.3831 24.487V23.2183C57.3831 22.3807 57.733 22.2993 58.2783 22.2993H60.15C60.6545 22.2993 61.0533 22.3807 61.0533 23.2183V24.487ZM72.4544 26.6746V21.0307H70.2816L67.9541 25.1864L65.7081 21.0307H63.4621V26.6746H64.9676V22.5271L67.2217 26.6746H68.6865L70.9489 22.5271V26.6746H72.4544ZM80.0291 26.6746V21.0307H73.3398V26.6746H74.8453V22.34H78.5236V26.6746H80.0291ZM88.4891 26.6746L85.5758 21.0307H83.4356L80.5222 26.6746H82.1986L82.7031 25.7069H86.3082L86.8046 26.6746H88.4891ZM85.7141 24.5358H83.3135L84.526 22.218L85.7141 24.5358ZM95.6374 26.6746V21.0307H94.1319V23.1533H90.4455V21.0307H88.94V26.6746H90.4455V24.4626H94.1319V26.6746H95.6374ZM103.227 26.6746V21.0307H101.721L98.0185 24.8204H98.0023L98.043 21.0307H96.5375V26.6746H98.043L101.746 22.8768H101.762L101.721 26.6746H103.227ZM109.481 19.5099H108.537C108.537 19.8271 108.293 19.8271 108.074 19.8271H106.853C106.633 19.8271 106.389 19.8271 106.389 19.5099H105.445C105.445 20.4614 106.121 20.5265 106.853 20.5265H108.074C108.814 20.5265 109.481 20.4614 109.481 19.5099ZM110.824 26.6746V21.0307H109.319L105.616 24.8204H105.6L105.64 21.0307H104.135V26.6746H105.64L109.343 22.8768H109.359L109.319 26.6746H110.824Z" fill="#E74349"/>
</g>
<defs>
<clipPath id="clip0_1071_4129">
<rect width="111" height="27" fill="white"/>
</clipPath>
</defs>
</svg>
