<svg width="100" height="100" viewBox="0 0 100 100" fill="none" xmlns="http://www.w3.org/2000/svg">
<g clip-path="url(#clip0_983_31)">
<path d="M19.6273 89.0481L12.8264 75.6958H7.83023L1.0293 89.0481H4.94267L6.1205 86.7588H14.5361L15.6949 89.0481H19.6273ZM13.1493 83.9882H7.54524L10.3758 78.5048L13.1493 83.9882ZM38.214 89.0481V75.6958H34.6994V80.7176H26.0939V75.6958H22.5794V89.0481H26.0939V83.8152H34.6994V89.0481H38.214ZM57.8299 89.0481V75.6958H54.3153L45.672 84.6615H45.634L45.7289 75.6958H42.2143V89.0481H45.7289L54.3726 80.0633H54.4106L54.3153 89.0481H57.8299ZM77.1421 84.3923V83.9882H73.514V84.3923C73.514 85.9505 72.8109 86.066 71.3672 86.066H67.055C65.4211 86.066 65.174 85.2965 65.174 83.2955V81.2176C65.174 79.3131 65.535 78.6972 66.9977 78.6972H71.3672C72.5259 78.6972 73.3808 78.7743 73.4947 79.9671V80.4865H77.1231V79.9671C77.1231 75.9654 75.1855 75.5996 72.1272 75.5996H67.3777C64.0343 75.5996 61.5459 76.2346 61.5459 80.6404V84.1038C61.5459 88.9712 64.3384 89.1636 67.4347 89.1636H71.7472C73.4187 89.1636 74.7296 89.183 75.9265 88.1823C77.1231 87.182 77.1421 85.8543 77.1421 84.3923ZM98.6686 89.0481L91.8679 75.6958H86.8716L80.0706 89.0481H83.9842L85.1618 86.7588H93.5777L94.7364 89.0481H98.6686ZM92.1906 83.9882H86.5865L89.4174 78.5048L92.1906 83.9882Z" fill="#E74349"/>
<path d="M5.35539 95.6933V94.5684H0.0800781V99.7041H1.43179V95.6933H5.35539ZM11.5548 96.4553C11.5548 95.1086 11.0799 94.5684 9.82315 94.5684H6.06759V99.7041H7.41932V98.3868H9.82315C11.2406 98.3868 11.5548 97.8985 11.5548 96.4553ZM10.1666 96.4553C10.1666 97.1141 10.0862 97.1954 9.55281 97.1954H7.41932V95.7598H9.55281C10.0862 95.7598 10.1666 95.9228 10.1666 96.4553ZM18.4009 94.5684H16.8446L15.0837 97.5134H15.0691L13.279 94.5684H11.7227L14.2946 98.6605L14.2727 98.7196C14.2362 98.8086 14.1704 98.8307 14.0827 98.8307H13.3375V99.7041H14.8134C15.186 99.7041 15.4198 99.5781 15.5294 99.3266L18.4009 94.5684ZM24.7604 99.7041V94.5684H18.7545V99.7041H20.1062V95.7598H23.4087V99.7041H24.7604ZM31.5817 99.7041V94.5684H25.5758V99.7041H26.9275V95.7598H30.23V99.7041H31.5817ZM39.1776 99.7041L36.562 94.5684H34.6403L32.0245 99.7041H33.5297L33.9827 98.8235H37.2193L37.6651 99.7041H39.1776ZM36.6861 97.7577H34.5305L35.6193 95.6487L36.6861 97.7577ZM49.7044 99.7041V98.8307H49.4851C49.2952 98.8307 49.1637 98.8529 49.1637 98.5051V98.0169C49.1637 97.4397 48.8054 97.1141 48.2501 97.092V97.0695C48.8054 97.0473 49.1051 96.7515 49.1051 96.1743V95.7674C49.1051 95.4193 49.2366 95.4418 49.4267 95.4418H49.6457V94.5684H48.5644C48.0312 94.5684 47.7827 94.8276 47.7827 95.338V95.856C47.7827 96.2407 47.6074 96.4999 47.1983 96.4999H44.7942V94.5684H43.4427V99.7041H44.7942V97.6913H47.2566C47.6657 97.6913 47.8118 97.9501 47.8118 98.3349V98.9345C47.8118 99.4449 48.0603 99.7041 48.5935 99.7041H49.7044ZM56.204 97.8615V96.411C56.204 94.8276 55.1227 94.5314 54.0047 94.5314H52.3244C51.1627 94.5314 50.1325 94.8276 50.1325 96.411V97.8615C50.1325 99.4449 51.1552 99.7484 52.3244 99.7484H54.0047C55.1739 99.7484 56.204 99.4449 56.204 97.8615ZM54.8159 97.7134C54.8159 98.4757 54.4945 98.557 54.0047 98.557H52.3244C51.8349 98.557 51.5206 98.4757 51.5206 97.7134V96.5591C51.5206 95.7968 51.8349 95.7228 52.3244 95.7228H54.0047C54.4579 95.7228 54.8159 95.7968 54.8159 96.5591V97.7134ZM65.0525 99.7041V94.5684H63.1017L61.0118 98.3497L58.9952 94.5684H56.9786V99.7041H58.3305V95.93L60.3542 99.7041H61.6695L63.7006 95.93V99.7041H65.0525ZM71.8532 99.7041V94.5684H65.8474V99.7041H67.199V95.7598H70.5017V99.7041H71.8532ZM79.4491 99.7041L76.8335 94.5684H74.9118L72.2959 99.7041H73.8013L74.2542 98.8235H77.4908L77.9366 99.7041H79.4491ZM76.9576 97.7577H74.8023L75.8908 95.6487L76.9576 97.7577ZM85.8671 99.7041V94.5684H84.5156V96.4999H81.2057V94.5684H79.8539V99.7041H81.2057V97.6913H84.5156V99.7041H85.8671ZM92.6813 99.7041V94.5684H91.3295L88.0051 98.0169H87.9905L88.0271 94.5684H86.6752V99.7041H88.0271L91.3515 96.2484H91.3661L91.3295 99.7041H92.6813ZM98.2969 93.1847H97.4495C97.4495 93.4733 97.2301 93.4733 97.0329 93.4733H95.9369C95.7396 93.4733 95.5207 93.4733 95.5207 93.1847H94.6729C94.6729 94.0504 95.2793 94.1096 95.9369 94.1096H97.0329C97.6979 94.1096 98.2969 94.0504 98.2969 93.1847ZM99.5027 99.7041V94.5684H98.1508L94.8264 98.0169H94.8118L94.8484 94.5684H93.4966V99.7041H94.8484L98.1728 96.2484H98.1874L98.1508 99.7041H99.5027Z" fill="#E74349"/>
<path d="M46.9077 47.4048L36.7626 70.2422H29.8301L59.4199 3.11415L59.7582 2.42211L60.0962 1.73007L60.6036 1.03803L61.1108 0.692005L61.787 0.518994L62.4636 0.345984L63.2199 0.172974H64.0674L65.0843 0.345984L65.7623 0.518994L66.4402 0.692005L66.9487 0.865015L67.4572 1.21104L67.7962 1.55706L68.1352 2.07609L98.9826 70.2422H73.9613L63.4779 47.4048H46.9077Z" fill="#C0C98A"/>
<path d="M88.8131 63.3218H77.9657L67.4572 40.4845H49.8301L64.2369 8.99658L88.8131 63.3218Z" fill="#333333"/>
<path d="M55.5 35.1869L64.2574 15.1869L72.9996 35.1869H55.5Z" fill="#C0C98A"/>
<path d="M23.7288 70.2422H0L25.5932 14.3532L25.7627 14.0082L26.2712 13.4907L26.9492 12.9732L27.4576 12.6282L27.7966 12.4557L28.4746 12.2832L29.1525 12.1107H30.5085L31.1864 12.2832L31.8644 12.4557L32.5424 12.6282L33.2203 12.9732L33.8983 13.3182L34.7458 14.0082L35.2542 14.6982L61.017 70.2422H38.9831L42.3729 62.6522H49.4915L30.678 22.633L11.1864 62.6522H18.9831L31.8644 35.9152L36.1017 44.1951L23.7288 70.2422Z" fill="#E74349"/>
</g>
<defs>
<clipPath id="clip0_983_31">
<rect width="100" height="100" fill="white"/>
</clipPath>
</defs>
</svg>
